<svg width="35" height="35" viewBox="0 0 35 35" fill="none" xmlns="http://www.w3.org/2000/svg">
<g clip-path="url(#clip0_157_124)">
<path fill-rule="evenodd" clip-rule="evenodd" d="M17.5 17.5C13.6211 17.5 10.4667 14.3605 10.4667 10.5C10.4667 6.63947 13.6211 3.49997 17.5 3.49997C21.3789 3.49997 24.5333 6.63947 24.5333 10.5C24.5333 14.3605 21.3789 17.5 17.5 17.5ZM24.1078 18.6777C26.8983 16.4429 28.5248 12.8291 27.9269 8.87238C27.2324 4.28213 23.3957 0.608959 18.7643 0.0734595C12.3727 -0.66679 6.95002 4.28572 6.95002 10.5C6.95002 13.8075 8.49031 16.7544 10.8922 18.6777C4.99123 20.8844 0.68331 26.0662 0.00810961 33.0592C-0.0903559 34.0935 0.720243 35 1.76469 35C2.65968 35 3.4228 34.328 3.50193 33.4407C4.20702 25.6305 10.2152 21 17.5 21C24.7848 21 30.793 25.6305 31.4981 33.4407C31.5772 34.328 32.3403 35 33.2353 35C34.2798 35 35.0904 34.0935 34.9919 33.0592C34.3167 26.0662 30.0088 20.8844 24.1078 18.6777Z" fill="#0C727D"/>
</g>
<defs>
<clipPath id="clip0_157_124">
<rect width="35" height="35" fill="white"/>
</clipPath>
</defs>
</svg>
